<svg width="290" height="210" viewBox="0 0 290 210" fill="none" xmlns="http://www.w3.org/2000/svg">
<rect y="72" width="290" height="66" rx="10" fill="#F8F1EA"/>
<circle cx="105" cy="105" r="105" transform="matrix(-1 0 0 1 250 0)" fill="white"/>
<g clip-path="url(#clip0_1_776)">
<path d="M158.578 87.9421V93.9255H162.502V87.9421C162.502 84.7459 165.093 82.1549 168.289 82.1549C171.485 82.1549 174.076 84.7459 174.076 87.9421V123.058C174.076 126.254 171.485 128.845 168.289 128.845H125.98C122.784 128.845 120.193 126.254 120.193 123.058V110.641H116.27V123.058C116.27 128.421 120.617 132.769 125.98 132.769H168.289C173.652 132.769 178 128.421 178 123.058V87.9421C178 82.579 173.652 78.2313 168.289 78.2313C162.926 78.2313 158.578 82.579 158.578 87.9421V87.9421Z" fill="#D4D3D9"/>
<path d="M121.888 129.924C121.121 130.691 119.879 130.691 119.113 129.924C120.871 131.682 123.298 132.769 125.98 132.769H168.289C170.97 132.769 173.398 131.682 175.155 129.924C174.389 130.691 173.147 130.691 172.381 129.924C171.615 129.158 171.615 127.916 172.381 127.15C171.334 128.197 169.887 128.845 168.289 128.845H125.98C124.382 128.845 122.935 128.198 121.887 127.15C122.654 127.916 122.654 129.158 121.888 129.924Z" fill="#A4AFBA"/>
<path d="M148.115 75.6173V86.0786H142.884V75.6173H148.115Z" fill="#A4AFBA"/>
<path d="M150.731 83.4628H140.268C138.823 83.4628 137.652 84.6339 137.652 86.0785V97.176H153.347V86.0785C153.347 84.6339 152.176 83.4628 150.731 83.4628V83.4628Z" fill="#3B4456"/>
<path d="M148.115 83.4628H140.268C138.823 83.4628 137.652 84.6339 137.652 86.0785V97.176H145.499V86.0785C145.499 84.6339 146.671 83.4628 148.115 83.4628V83.4628Z" fill="#303746"/>
<path d="M153.347 78.2314H137.653C136.208 78.2314 135.037 77.0602 135.037 75.6156C135.037 74.1711 136.208 73 137.653 73H153.347C154.792 73 155.963 74.1711 155.963 75.6157C155.963 77.0603 154.792 78.2314 153.347 78.2314Z" fill="#3B4456"/>
<path d="M142.884 75.6157C142.884 74.1711 144.055 73 145.5 73H137.653C136.208 73 135.037 74.1711 135.037 75.6157C135.037 77.0603 136.208 78.2315 137.653 78.2315H145.5C144.055 78.2314 142.884 77.0603 142.884 75.6157V75.6157Z" fill="#303746"/>
<path d="M157.271 138H133.729C130.84 138 128.498 135.658 128.498 132.769V93.9256C128.498 91.0364 130.84 88.6942 133.729 88.6942H157.271C160.16 88.6942 162.502 91.0364 162.502 93.9256V132.769C162.502 135.658 160.16 138 157.271 138Z" fill="#F0C419"/>
<path d="M140.294 132.769V93.9256C140.294 91.0364 142.636 88.6942 145.525 88.6942H133.729C130.84 88.6942 128.498 91.0364 128.498 93.9256V132.769C128.498 135.658 130.84 138 133.729 138H145.525C142.636 138 140.294 135.658 140.294 132.769Z" fill="#F0C419"/>
<path d="M128.498 96.3451H162.502V130.349H128.498V96.3451Z" fill="#F29C1F"/>
<path d="M128.498 96.3451H140.294V130.349H128.498V96.3451Z" fill="#F29C1F"/>
<path d="M120.847 82.3137V105.5H115.615V85.471C115.615 81.009 117.388 76.7298 120.543 73.5746C121.309 72.8085 122.551 72.8085 123.317 73.5746C124.083 74.3408 124.083 75.5829 123.317 76.3489C121.735 77.9309 120.847 80.0765 120.847 82.3137V82.3137Z" fill="#3B4456"/>
<path d="M118.231 92.4215C116.786 92.4215 115.615 91.2504 115.615 89.8058V105.5H120.847V89.8058C120.847 91.2504 119.676 92.4215 118.231 92.4215V92.4215Z" fill="#303746"/>
<path d="M120.847 100.269H115.616C114.171 100.269 113 101.44 113 102.884V115.963C113 117.407 114.171 118.578 115.616 118.578H120.847C122.292 118.578 123.463 117.407 123.463 115.963V102.884C123.463 101.44 122.292 100.269 120.847 100.269V100.269Z" fill="#EAEAEA"/>
<path d="M118.035 115.963V102.884C118.035 101.44 119.206 100.269 120.651 100.269H115.616C114.171 100.269 113 101.44 113 102.884V115.963C113 117.407 114.171 118.578 115.616 118.578H120.651C119.206 118.578 118.035 117.407 118.035 115.963Z" fill="#D4D3D9"/>
<path d="M139.248 114.299H136.194C135.668 114.299 135.242 113.873 135.242 113.347C135.242 112.821 135.668 112.395 136.194 112.395H139.248C139.774 112.395 140.2 112.821 140.2 113.347C140.2 113.873 139.774 114.299 139.248 114.299Z" fill="#EAEAEA"/>
<path d="M154.806 114.299H151.778C151.252 114.299 150.826 113.873 150.826 113.347C150.826 112.821 151.252 112.395 151.778 112.395H154.806C155.332 112.395 155.759 112.821 155.759 113.347C155.759 113.873 155.332 114.299 154.806 114.299Z" fill="#EAEAEA"/>
<path d="M150.642 109.861C150.182 109.861 149.778 109.526 149.703 109.058C149.621 108.538 149.975 108.05 150.494 107.968C151.542 107.801 152.303 106.909 152.303 105.845C152.303 105.319 152.73 104.892 153.255 104.892C153.781 104.892 154.208 105.319 154.208 105.845C154.208 107.851 152.771 109.534 150.793 109.849C150.742 109.857 150.692 109.861 150.642 109.861V109.861Z" fill="#EAEAEA"/>
<path d="M140.375 109.863C140.327 109.863 140.278 109.859 140.229 109.852C138.27 109.552 136.793 107.829 136.793 105.845C136.793 105.319 137.219 104.892 137.745 104.892C138.271 104.892 138.697 105.319 138.697 105.845C138.697 106.897 139.48 107.81 140.518 107.97C141.037 108.049 141.394 108.535 141.315 109.055C141.243 109.526 140.837 109.863 140.375 109.863V109.863Z" fill="#EAEAEA"/>
<path d="M137.745 121.802C137.219 121.802 136.793 121.376 136.793 120.85C136.793 118.864 138.271 117.142 140.231 116.842C140.751 116.763 141.237 117.12 141.316 117.64C141.396 118.159 141.039 118.645 140.519 118.725C139.481 118.883 138.698 119.797 138.698 120.85C138.697 121.376 138.271 121.802 137.745 121.802V121.802Z" fill="#EAEAEA"/>
<path d="M153.255 121.802C152.729 121.802 152.302 121.375 152.302 120.85C152.302 119.797 151.52 118.884 150.482 118.725C149.962 118.645 149.605 118.159 149.685 117.639C149.765 117.12 150.251 116.763 150.77 116.842C152.729 117.142 154.207 118.865 154.207 120.85C154.207 121.375 153.781 121.802 153.255 121.802V121.802Z" fill="#EAEAEA"/>
<path d="M145.5 121.282C149.006 121.282 151.848 117.729 151.848 113.347C151.848 108.965 149.006 105.413 145.5 105.413C141.994 105.413 139.152 108.965 139.152 113.347C139.152 117.729 141.994 121.282 145.5 121.282Z" fill="#EAEAEA"/>
<path d="M143.167 113.347C143.167 109.842 144.986 106.87 147.507 105.82C146.876 105.557 146.202 105.413 145.5 105.413C141.994 105.413 139.152 108.965 139.152 113.347C139.152 117.729 141.994 121.282 145.5 121.282C146.202 121.282 146.876 121.137 147.507 120.874C144.986 119.824 143.167 116.852 143.167 113.347V113.347Z" fill="#D4D3D9"/>
<path d="M147.462 112.776C146.936 112.776 146.51 112.35 146.51 111.824V110.254C146.51 109.728 146.936 109.302 147.462 109.302C147.988 109.302 148.414 109.728 148.414 110.254V111.824C148.414 112.35 147.988 112.776 147.462 112.776Z" fill="#393F4A"/>
<path d="M143.538 112.776C143.012 112.776 142.586 112.35 142.586 111.824V110.254C142.586 109.728 143.012 109.302 143.538 109.302C144.064 109.302 144.49 109.728 144.49 110.254V111.824C144.49 112.35 144.064 112.776 143.538 112.776Z" fill="#393F4A"/>
</g>
<circle cx="95" cy="95" r="94.5" transform="matrix(-1 0 0 1 240 10)" stroke="#B4732D" stroke-dasharray="8 8"/>
<defs>
<clipPath id="clip0_1_776">
<rect width="65" height="65" fill="white" transform="translate(113 73)"/>
</clipPath>
</defs>
</svg>
