<svg width="290" height="210" viewBox="0 0 290 210" fill="none" xmlns="http://www.w3.org/2000/svg">
<rect y="72" width="290" height="66" rx="10" fill="#F8F1EA"/>
<circle cx="105" cy="105" r="105" transform="matrix(-1 0 0 1 250 0)" fill="white"/>
<path d="M154.688 80.225L145.5 84.148L136.311 80.225L135.129 74.1154C135.017 73.5371 135.46 73 136.049 73H154.95C155.539 73 155.982 73.5371 155.871 74.1156L154.688 80.225Z" fill="#FCF2B6"/>
<path d="M140.616 77.8443C141.157 77.8443 141.596 77.4052 141.596 76.8635C141.596 76.3219 141.157 75.8828 140.616 75.8828C140.074 75.8828 139.635 76.3219 139.635 76.8635C139.635 77.4052 140.074 77.8443 140.616 77.8443Z" fill="#F6DE91"/>
<path d="M149.547 77.2107C150.089 77.2107 150.528 76.7717 150.528 76.23C150.528 75.6884 150.089 75.2493 149.547 75.2493C149.005 75.2493 148.566 75.6884 148.566 76.23C148.566 76.7717 149.005 77.2107 149.547 77.2107Z" fill="#F6DE91"/>
<path d="M154.951 73H151.028C151.617 73 152.06 73.5371 151.948 74.1156L150.766 80.225L153.151 82.8403L154.689 80.225L155.871 74.1156C155.983 73.5371 155.54 73 154.951 73V73Z" fill="#F9E89C"/>
<path d="M158.08 89.7532C158.062 89.7064 158.051 89.6557 158.051 89.6024V81.2009C158.051 80.6619 157.614 80.225 157.075 80.225H133.927C133.388 80.225 132.951 80.6619 132.951 81.2009V89.6023C132.951 89.6556 132.94 89.7064 132.922 89.753H158.08V89.7532Z" fill="#F5F0EB"/>
<path d="M154.126 81.2009V89.6024C154.126 89.6557 154.137 89.7065 154.156 89.7532H158.079C158.06 89.7064 158.049 89.6557 158.049 89.6024V81.2009C158.049 80.6619 157.612 80.225 157.073 80.225H153.15C153.689 80.225 154.126 80.662 154.126 81.2009V81.2009Z" fill="#EBE1DC"/>
<path d="M158.87 88.7144H158.46C158.432 88.7144 158.405 88.711 158.378 88.7057H132.622C132.596 88.711 132.569 88.7144 132.541 88.7144C127.76 88.7144 123.885 92.5898 123.885 97.3703V136.212C123.885 137.199 124.685 138 125.673 138H165.327C166.315 138 167.116 137.199 167.116 136.212V96.9605C167.116 92.4063 163.424 88.7144 158.87 88.7144V88.7144Z" fill="#9EEFB8"/>
<path d="M150.606 131.053C151.147 131.053 151.586 130.614 151.586 130.072C151.586 129.531 151.147 129.091 150.606 129.091C150.064 129.091 149.625 129.531 149.625 130.072C149.625 130.614 150.064 131.053 150.606 131.053Z" fill="#49C99A"/>
<path d="M129.41 104.305C129.952 104.305 130.391 103.866 130.391 103.324C130.391 102.783 129.952 102.344 129.41 102.344C128.869 102.344 128.43 102.783 128.43 103.324C128.43 103.866 128.869 104.305 129.41 104.305Z" fill="#49C99A"/>
<path d="M144.52 99.6404C145.061 99.6404 145.5 99.2013 145.5 98.6597C145.5 98.118 145.061 97.679 144.52 97.679C143.978 97.679 143.539 98.118 143.539 98.6597C143.539 99.2013 143.978 99.6404 144.52 99.6404Z" fill="#49C99A"/>
<path d="M137.312 131.292C138.527 131.292 139.512 130.307 139.512 129.091C139.512 127.876 138.527 126.891 137.312 126.891C136.096 126.891 135.111 127.876 135.111 129.091C135.111 130.307 136.096 131.292 137.312 131.292Z" fill="#49C99A"/>
<path d="M156.328 102.398C157.931 102.398 159.229 101.099 159.229 99.4972C159.229 97.8951 157.931 96.5964 156.328 96.5964C154.726 96.5964 153.428 97.8951 153.428 99.4972C153.428 101.099 154.726 102.398 156.328 102.398Z" fill="#49C99A"/>
<path d="M136.734 110.524C136.308 110.849 136.098 111.384 136.189 111.912C136.504 113.744 137.798 118.043 143.079 120.226C143.72 120.491 144.333 120.685 144.919 120.818C148.466 121.05 151.969 115.019 151.969 115.019L147.612 109.104L142.33 107.888C139.792 108.405 137.73 109.766 136.734 110.524V110.524Z" fill="#F2AA62"/>
<path d="M158.869 88.7046H158.46C158.432 88.7046 158.404 88.7012 158.378 88.6958H154.455C154.481 88.7012 154.509 88.7046 154.537 88.7046H154.946C159.501 88.7046 163.192 92.3964 163.192 96.9505V136.202C163.192 137.189 162.392 137.99 161.404 137.99H165.327C166.315 137.99 167.115 137.189 167.115 136.202V96.9506C167.115 92.3965 163.424 88.7046 158.869 88.7046V88.7046Z" fill="#8CE0B4"/>
<path d="M147.752 108.359C145.85 107.573 143.989 107.551 142.33 107.889C142.825 107.997 143.325 108.151 143.829 108.359C145.379 109 146.585 109.828 147.521 110.704C150.871 113.838 149.572 119.497 145.16 120.753C145.08 120.775 145 120.797 144.919 120.817C151.474 122.307 154.601 116.169 154.601 116.169C154.601 116.169 153.781 110.851 147.752 108.359Z" fill="#EC9257"/>
<path d="M157.695 131.049C157.497 131.066 157.293 131.023 157.11 130.914C155.46 129.926 154.557 127.909 154.963 126.117C155.193 125.101 155.835 124.326 156.457 123.576C157.019 122.898 157.55 122.257 157.63 121.574C157.971 118.685 155.081 117.549 152.878 116.946C152.356 116.803 152.048 116.264 152.191 115.741C152.334 115.219 152.874 114.911 153.396 115.054C155.346 115.588 156.796 116.292 157.831 117.208C159.206 118.426 159.794 119.972 159.578 121.803C159.43 123.063 158.653 124.001 157.967 124.828C157.471 125.426 157.002 125.992 156.876 126.551C156.655 127.523 157.189 128.675 158.117 129.23C158.582 129.508 158.733 130.111 158.455 130.575C158.287 130.857 157.999 131.024 157.695 131.049V131.049Z" fill="#EC9257"/>
<path d="M138.051 116.343C138.411 116.846 138.838 117.348 139.343 117.831C141.855 115.231 142.717 111.502 141.603 108.064C140.944 108.244 140.325 108.475 139.756 108.729C140.599 111.403 139.951 114.289 138.051 116.343V116.343Z" fill="#EC9257"/>
<path d="M146.148 109.043C146.287 112.56 145.193 115.983 143.011 118.79L142.21 119.819C142.208 119.822 142.207 119.824 142.205 119.827C142.484 119.966 142.774 120.1 143.079 120.226C143.45 120.38 143.812 120.509 144.166 120.617L144.615 120.038C147.079 116.87 148.321 113.011 148.182 109.043H146.148V109.043Z" fill="#EC9257"/>
<path d="M138.051 116.343C138.411 116.846 138.838 117.348 139.343 117.831C141.855 115.231 142.717 111.502 141.603 108.064C140.944 108.244 140.325 108.475 139.756 108.729C140.599 111.403 139.951 114.289 138.051 116.343V116.343Z" fill="#EC9257"/>
<path d="M147.258 108.173C147.149 108.136 146.613 107.975 146.49 107.945C146.483 107.943 146.194 107.876 146.057 107.849C146.058 107.859 146.057 107.868 146.059 107.878C146.126 108.458 146.16 109.037 146.161 109.613C146.668 109.96 147.12 110.328 147.522 110.704C147.737 110.905 147.932 111.116 148.109 111.336C148.202 110.412 148.219 109.476 148.158 108.535C148.158 108.535 148.158 108.535 148.158 108.535C148.025 108.475 147.891 108.416 147.753 108.359C147.618 108.303 147.289 108.184 147.258 108.173Z" fill="#E08448"/>
<circle cx="95" cy="95" r="94.5" transform="matrix(-1 0 0 1 240 10)" stroke="#B4732D" stroke-dasharray="8 8"/>
</svg>
