<svg width="290" height="210" viewBox="0 0 290 210" fill="none" xmlns="http://www.w3.org/2000/svg">
<rect y="72" width="290" height="66" rx="10" fill="#F4F9F0"/>
<circle cx="105" cy="105" r="105" transform="matrix(-1 0 0 1 250 0)" fill="white"/>
<path d="M166.191 87.0099C166.146 85.3491 165.119 83.7682 163.062 82.581C158.419 79.9001 150.308 80.2363 144.946 83.3323C141.975 85.0471 140.478 87.25 140.519 89.3293L140.514 89.3298V117.113H140.518C140.556 118.78 141.582 120.367 143.645 121.559C148.289 124.24 156.4 123.903 161.762 120.808C164.739 119.089 166.237 116.881 166.19 114.798H166.195V87.0094L166.191 87.0099Z" fill="#B6C5CE"/>
<path d="M161.761 93.0402C156.399 96.1362 148.288 96.4724 143.644 93.7915C139.001 91.1106 139.583 86.4272 144.945 83.3318C150.307 80.2363 158.418 79.8996 163.062 82.581C167.705 85.2619 167.123 89.9447 161.761 93.0402V93.0402Z" fill="#D6E5E5"/>
<path d="M159.329 75.9184C159.308 75.1423 158.853 74.4014 157.892 73.846C155.721 72.5928 151.93 72.75 149.424 74.1971C148.035 74.9985 147.359 76.026 147.378 76.998L147.352 77V84.2214H147.354C147.371 85.001 147.851 85.7429 148.816 86.2998C150.987 87.553 154.777 87.3963 157.284 85.9492C158.676 85.1453 159.375 84.1138 159.354 83.1399H159.356V75.9164L159.329 75.9184Z" fill="#FFB82B"/>
<path d="M157.283 78.7347C154.776 80.1817 150.985 80.339 148.815 79.0858C146.644 77.8331 146.917 75.6442 149.423 74.1971C151.929 72.75 155.72 72.5928 157.891 73.846C160.061 75.0992 159.789 77.2881 157.283 78.7347Z" fill="#FFE14D"/>
<path d="M145.918 98.6589C145.873 96.9981 144.846 95.4176 142.789 94.2304C138.146 91.549 130.034 91.8857 124.673 94.9812C121.702 96.696 120.205 98.8989 120.245 100.978L120.24 100.979V128.762H120.244C120.282 130.429 121.308 132.016 123.372 133.208C128.016 135.889 136.127 135.553 141.489 132.457C144.466 130.738 145.964 128.53 145.917 126.447H145.922V98.6584L145.918 98.6589Z" fill="#B6C5CE"/>
<path d="M141.488 104.69C136.126 107.785 128.015 108.121 123.371 105.44C118.728 102.76 119.31 98.0767 124.672 94.9807C130.034 91.8853 138.145 91.549 142.788 94.2299C147.432 96.9108 146.849 101.594 141.488 104.69Z" fill="#D6E5E5"/>
<path d="M139.055 87.5679C139.034 86.7913 138.579 86.0504 137.617 85.495C135.447 84.2418 131.656 84.3995 129.15 85.8466C127.761 86.6479 127.085 87.6755 127.104 88.647L127.078 88.6494V95.8709H127.08C127.098 96.6505 127.577 97.3923 128.542 97.9492C130.712 99.2019 134.503 99.0457 137.009 97.5981C138.402 96.7948 139.101 95.7628 139.079 94.7888H139.082V87.5659L139.055 87.5679Z" fill="#2B5D99"/>
<path d="M137.009 90.3841C134.503 91.8312 130.712 91.9884 128.542 90.7352C126.371 89.482 126.643 87.2931 129.15 85.8465C131.656 84.3994 135.447 84.2422 137.617 85.4954C139.788 86.7481 139.516 88.937 137.009 90.3841Z" fill="#2C92BF"/>
<path d="M143.602 108.609C143.009 109.142 142.307 109.652 141.488 110.125C136.439 113.04 128.954 113.507 124.221 111.314V126.722C128.954 128.915 136.439 128.448 141.488 125.533C142.307 125.061 143.009 124.55 143.602 124.017V108.609Z" fill="#2B5D99"/>
<path d="M139.871 115.035C137.068 114.19 133.904 114.819 131.615 116.966C129.327 119.113 128.497 122.23 129.161 125.081C131.965 125.926 135.128 125.297 137.417 123.15C139.706 121.003 140.535 117.886 139.871 115.035Z" fill="#2C92BF"/>
<path d="M170.779 101.641C170.734 99.9805 169.707 98.3995 167.65 97.2123C163.007 94.5314 154.896 94.8676 149.534 97.9636C146.563 99.6785 145.066 101.881 145.106 103.961L145.102 103.961V131.744H145.106C145.144 133.411 146.17 134.999 148.233 136.19C152.877 138.871 160.988 138.535 166.35 135.439C169.327 133.72 170.824 131.512 170.778 129.429H170.783V101.641L170.779 101.641Z" fill="#B1CEC8"/>
<path d="M166.351 107.672C160.989 110.768 152.878 111.104 148.234 108.423C143.591 105.742 144.173 101.059 149.535 97.9631C154.897 94.8676 163.008 94.5309 167.652 97.2123C172.295 99.8932 171.713 104.576 166.351 107.672V107.672Z" fill="#D6E5E5"/>
<path d="M163.917 90.5498C163.895 89.7737 163.441 89.0328 162.48 88.4773C160.309 87.2242 156.518 87.3814 154.012 88.8284C152.623 89.6298 151.947 90.6574 151.966 91.6293L151.939 91.6313V98.8528H151.941C151.959 99.6324 152.439 100.374 153.404 100.931C155.574 102.184 159.365 102.028 161.872 100.581C163.263 99.7767 163.963 98.7452 163.941 97.7712H163.944V90.5478L163.917 90.5498Z" fill="#5B9617"/>
<path d="M161.872 93.366C159.366 94.8131 155.575 94.9703 153.405 93.7171C151.234 92.4645 151.506 90.2755 154.013 88.8284C156.519 87.3814 160.31 87.2242 162.48 88.4773C164.651 89.7305 164.379 91.9195 161.872 93.366Z" fill="#A2BF26"/>
<path d="M168.463 111.591C167.87 112.124 167.168 112.635 166.35 113.107C161.301 116.022 153.815 116.489 149.082 114.296V129.704C153.815 131.898 161.301 131.43 166.35 128.515C167.168 128.043 167.87 127.533 168.463 126.999V111.591Z" fill="#5B9617"/>
<path d="M164.734 118.017C161.931 117.172 158.767 117.801 156.479 119.948C154.19 122.095 153.36 125.212 154.025 128.063C156.827 128.908 159.991 128.279 162.28 126.132C164.569 123.985 165.398 120.868 164.734 118.017V118.017Z" fill="#A2BF26"/>
<circle cx="95" cy="95" r="94.5" transform="matrix(-1 0 0 1 240 10)" stroke="#54CE3E" stroke-dasharray="8 8"/>
</svg>
